<mxfile host="app.diagrams.net" modified="2023-02-23T12:34:29.049Z" agent="5.0 (Windows NT 10.0; Win64; x64) AppleWebKit/537.36 (KHTML, like Gecko) Chrome/110.0.0.0 Safari/537.36" etag="RCRiZaQjcm-UdKdM6Ems" version="20.8.20" type="github">
  <diagram name="Strona-1" id="S72mYBfuK6-hFA76-V2g">
    <mxGraphModel dx="1434" dy="796" grid="1" gridSize="10" guides="1" tooltips="1" connect="1" arrows="1" fold="1" page="1" pageScale="1" pageWidth="827" pageHeight="1169" math="0" shadow="0">
      <root>
        <mxCell id="0" />
        <mxCell id="1" parent="0" />
        <mxCell id="AicMnv-0BFNz4DN7gxKm-3" value="" style="edgeStyle=orthogonalEdgeStyle;rounded=0;orthogonalLoop=1;jettySize=auto;html=1;" edge="1" parent="1" source="AicMnv-0BFNz4DN7gxKm-1" target="AicMnv-0BFNz4DN7gxKm-2">
          <mxGeometry relative="1" as="geometry" />
        </mxCell>
        <mxCell id="AicMnv-0BFNz4DN7gxKm-1" value="start" style="ellipse;whiteSpace=wrap;html=1;" vertex="1" parent="1">
          <mxGeometry x="362" y="80" width="120" height="80" as="geometry" />
        </mxCell>
        <mxCell id="AicMnv-0BFNz4DN7gxKm-10" value="" style="edgeStyle=orthogonalEdgeStyle;rounded=0;orthogonalLoop=1;jettySize=auto;html=1;" edge="1" parent="1" source="AicMnv-0BFNz4DN7gxKm-2" target="AicMnv-0BFNz4DN7gxKm-4">
          <mxGeometry relative="1" as="geometry" />
        </mxCell>
        <mxCell id="AicMnv-0BFNz4DN7gxKm-2" value="i = 0" style="rounded=0;whiteSpace=wrap;html=1;" vertex="1" parent="1">
          <mxGeometry x="360" y="200" width="120" height="60" as="geometry" />
        </mxCell>
        <mxCell id="AicMnv-0BFNz4DN7gxKm-6" value="" style="edgeStyle=orthogonalEdgeStyle;rounded=0;orthogonalLoop=1;jettySize=auto;html=1;" edge="1" parent="1" source="AicMnv-0BFNz4DN7gxKm-4" target="AicMnv-0BFNz4DN7gxKm-5">
          <mxGeometry relative="1" as="geometry" />
        </mxCell>
        <mxCell id="AicMnv-0BFNz4DN7gxKm-7" value="tak" style="edgeLabel;html=1;align=center;verticalAlign=middle;resizable=0;points=[];" vertex="1" connectable="0" parent="AicMnv-0BFNz4DN7gxKm-6">
          <mxGeometry x="-0.2128" y="1" relative="1" as="geometry">
            <mxPoint as="offset" />
          </mxGeometry>
        </mxCell>
        <mxCell id="AicMnv-0BFNz4DN7gxKm-14" value="" style="edgeStyle=orthogonalEdgeStyle;rounded=0;orthogonalLoop=1;jettySize=auto;html=1;" edge="1" parent="1" source="AicMnv-0BFNz4DN7gxKm-4" target="AicMnv-0BFNz4DN7gxKm-13">
          <mxGeometry relative="1" as="geometry" />
        </mxCell>
        <mxCell id="AicMnv-0BFNz4DN7gxKm-15" value="nie" style="edgeLabel;html=1;align=center;verticalAlign=middle;resizable=0;points=[];" vertex="1" connectable="0" parent="AicMnv-0BFNz4DN7gxKm-14">
          <mxGeometry x="-0.2083" relative="1" as="geometry">
            <mxPoint as="offset" />
          </mxGeometry>
        </mxCell>
        <mxCell id="AicMnv-0BFNz4DN7gxKm-4" value="i &amp;lt; a.dł" style="rhombus;whiteSpace=wrap;html=1;" vertex="1" parent="1">
          <mxGeometry x="372" y="320" width="96" height="100" as="geometry" />
        </mxCell>
        <mxCell id="AicMnv-0BFNz4DN7gxKm-12" style="edgeStyle=orthogonalEdgeStyle;rounded=0;orthogonalLoop=1;jettySize=auto;html=1;" edge="1" parent="1" source="AicMnv-0BFNz4DN7gxKm-5">
          <mxGeometry relative="1" as="geometry">
            <mxPoint x="410" y="290" as="targetPoint" />
            <Array as="points">
              <mxPoint x="220" y="290" />
            </Array>
          </mxGeometry>
        </mxCell>
        <mxCell id="AicMnv-0BFNz4DN7gxKm-5" value="suma = + a [i]&lt;br&gt;i = i + 1" style="rounded=0;whiteSpace=wrap;html=1;" vertex="1" parent="1">
          <mxGeometry x="160" y="340" width="120" height="60" as="geometry" />
        </mxCell>
        <mxCell id="AicMnv-0BFNz4DN7gxKm-17" value="" style="edgeStyle=orthogonalEdgeStyle;rounded=0;orthogonalLoop=1;jettySize=auto;html=1;" edge="1" parent="1" source="AicMnv-0BFNz4DN7gxKm-13" target="AicMnv-0BFNz4DN7gxKm-16">
          <mxGeometry relative="1" as="geometry" />
        </mxCell>
        <mxCell id="AicMnv-0BFNz4DN7gxKm-13" value="wyświetl suma" style="rounded=0;whiteSpace=wrap;html=1;" vertex="1" parent="1">
          <mxGeometry x="550" y="340" width="120" height="60" as="geometry" />
        </mxCell>
        <mxCell id="AicMnv-0BFNz4DN7gxKm-16" value="stop" style="ellipse;whiteSpace=wrap;html=1;" vertex="1" parent="1">
          <mxGeometry x="550" y="460" width="120" height="80" as="geometry" />
        </mxCell>
      </root>
    </mxGraphModel>
  </diagram>
</mxfile>
